<svg xmlns="http://www.w3.org/2000/svg" viewBox="0 0 220 84" role="img" aria-labelledby="title">
  <title id="title">N.I.A. Handball Club</title>
  <g fill="#1a4899">
    <text x="0" y="45" font-family="Arial Black, Arial, sans-serif" font-size="48" font-weight="900" letter-spacing="1">N.I.A.</text>
    <text x="4" y="66" font-family="Arial, sans-serif" font-size="16" font-weight="800">Handball Club</text>
    <path d="M173 11c12 0 22 9 22 21s-10 22-22 22-22-10-22-22 10-21 22-21Zm0 7a14 14 0 1 0 0 28 14 14 0 0 0 0-28Z" opacity=".14"/>
    <path d="M181 16a22 22 0 0 1 11 9l-34 22a22 22 0 0 1-6-12l29-19Z" opacity=".28"/>
  </g>
</svg>
